<?xml version="1.0" standalone="no"?>
<!DOCTYPE svg PUBLIC "-//W3C//DTD SVG 1.1//EN" "http://www.w3.org/Graphics/SVG/1.1/DTD/svg11.dtd" >
<svg xmlns="http://www.w3.org/2000/svg">
<metadata></metadata>
<defs>
<font id="formularbold" horiz-adv-x="600" >
<font-face units-per-em="2048" ascent="1638" descent="-410" />
<missing-glyph horiz-adv-x="569" />
<glyph horiz-adv-x="0" />
<glyph horiz-adv-x="682" />
<glyph horiz-adv-x="0" />
<glyph horiz-adv-x="0" />
<glyph unicode="&#xd;" horiz-adv-x="569" />
<glyph unicode=" "  horiz-adv-x="569" />
<glyph unicode="&#x09;" horiz-adv-x="569" />
<glyph unicode="&#xa0;" horiz-adv-x="569" />
<glyph unicode="!" horiz-adv-x="706" d="M197 0v311h313v-311h-313zM209 868v594h289v-594l-54 -428h-182z" />
<glyph unicode="&#x22;" horiz-adv-x="960" d="M147 874v588h261v-588h-261zM553 874v588h260v-588h-260z" />
<glyph unicode="#" horiz-adv-x="1312" d="M63 369v217h232l43 262h-209v217h244l59 369h221l-57 -369h231l60 369h221l-57 -369h198v-217h-233l-41 -262h207v-217h-240l-59 -369h-226l60 369h-232l-57 -369h-225l57 369h-197zM520 586h232l41 262h-232z" />
<glyph unicode="$" horiz-adv-x="1337" d="M90 446h291q17 -93 74.5 -147.5t140.5 -67.5v394l-98 20q-179 37 -271 134.5t-92 252.5q0 171 123 292t338 138v172h137v-176q190 -20 312.5 -132.5t144.5 -287.5h-289q-12 67 -56.5 111.5t-111.5 54.5v-346l98 -18q183 -35 289.5 -136t106.5 -280t-130 -306.5 t-366 -144.5v-174h-135v176q-228 18 -355 140.5t-151 330.5zM428 1044q0 -68 40 -105t128 -56v325q-74 -6 -121 -51t-47 -113zM733 227q89 5 145 54.5t56 126.5q0 148 -172 186l-29 6v-373z" />
<glyph unicode="%" horiz-adv-x="1802" d="M78 1075q0 172 86.5 279.5t251.5 107.5q166 0 254 -107.5t88 -279.5t-88 -279.5t-254 -107.5q-165 0 -251.5 107.5t-86.5 279.5zM266 1075q0 -101 37.5 -160t112.5 -59q76 0 113.5 58.5t37.5 160.5q0 99 -37.5 159t-113.5 60q-75 0 -112.5 -60t-37.5 -159zM365 0 l868 1434h207l-867 -1434h-208zM1042 360q0 172 88.5 280t253.5 108q164 0 252 -108t88 -280t-88 -279.5t-252 -107.5q-166 0 -254 107.5t-88 279.5zM1233 360q0 -102 37.5 -160.5t113.5 -58.5q75 0 113.5 59t38.5 160q0 99 -38.5 159.5t-113.5 60.5q-76 0 -113.5 -60.5 t-37.5 -159.5z" />
<glyph unicode="&#x26;" horiz-adv-x="1570" d="M106 401q0 233 242 385v54q-64 78 -92.5 138t-28.5 144q0 150 104 245t279 95q176 0 292 -91.5t116 -246.5q0 -106 -62 -183t-196 -173l258 -268q60 97 76 225h276q-36 -235 -160 -412l310 -313h-346l-111 113h-53q-179 -140 -404 -140q-227 0 -363.5 113.5t-136.5 314.5 zM391 410q0 -88 63 -139.5t169 -51.5q136 0 237 94l-311 320l-47 -33q-111 -76 -111 -190zM481 1118q0 -22 6.5 -43.5t13.5 -36t24 -35.5t24.5 -29t29.5 -29.5t25 -24.5q12 10 39.5 31t39 30.5t30.5 28t27 33t15 35t7 42.5q0 59 -40.5 93t-103.5 34q-61 0 -99 -34.5 t-38 -94.5z" />
<glyph unicode="'" horiz-adv-x="555" d="M147 874v588h261v-588h-261z" />
<glyph unicode="(" horiz-adv-x="665" d="M90 637q0 529 311 917h250q-49 -69 -89.5 -135.5t-83.5 -158t-72.5 -183t-48.5 -206.5t-19 -234q0 -149 27 -288t76.5 -255.5t100 -204.5t115.5 -178h-249q-318 383 -318 926z" />
<glyph unicode=")" horiz-adv-x="665" d="M8 -289q65 90 115.5 178t100 204.5t77 255.5t27.5 288q0 147 -27 285t-76 253.5t-98.5 202.5t-112.5 176h250q311 -388 311 -917q0 -544 -317 -926h-250z" />
<glyph unicode="*" horiz-adv-x="1015" d="M53 1061l62 190l305 -114l-10 325h198l-14 -325l307 114l64 -190l-316 -90l203 -256l-162 -119l-184 270l-180 -270l-160 119l201 256z" />
<glyph unicode="+" horiz-adv-x="1378" d="M162 471v244h405v403h242v-403h408v-244h-408v-405h-242v405h-405z" />
<glyph unicode="," d="M125 -291l156 240v51h-140v311h316v-362l-158 -240h-174z" />
<glyph unicode="-" horiz-adv-x="813" d="M96 455v247h621v-247h-621z" />
<glyph unicode="." d="M141 0v311h316v-311h-316z" />
<glyph unicode="/" horiz-adv-x="899" d="M-4 -289l618 1843h234l-612 -1843h-240z" />
<glyph unicode="0" horiz-adv-x="1323" d="M100 717q0 153 28 277.5t78.5 210.5t121 144.5t154 85.5t180.5 27q122 0 222 -44t177 -132t119.5 -233t42.5 -336q0 -190 -42.5 -335t-119.5 -233t-177 -132t-222 -44t-222 44t-177 132t-120 233t-43 335zM397 717q0 -74 6.5 -138.5t25 -129t47 -110.5t76.5 -74.5 t110 -28.5q63 0 111 28.5t76.5 74t47 110.5t25 129.5t6.5 138.5q0 75 -6.5 139.5t-25 129.5t-47 111t-76.5 74.5t-111 28.5q-62 0 -110 -28.5t-76.5 -74.5t-47 -111t-25 -129.5t-6.5 -139.5z" />
<glyph unicode="1" horiz-adv-x="1089" d="M106 952v293l275 189h346v-1178h295v-256h-913v256h323v883h-51z" />
<glyph unicode="2" horiz-adv-x="1243" d="M100 1001q12 222 151.5 341.5t373.5 119.5q222 0 359.5 -122t137.5 -339q0 -252 -266 -458l-301 -234v-53h606v-256h-1059v307l492 367q49 35 85.5 66.5t72 72t54.5 87t19 95.5q0 101 -56.5 153t-152.5 52q-94 0 -152.5 -49t-68.5 -150h-295z" />
<glyph unicode="3" horiz-adv-x="1236" d="M57 436h295q12 -97 78.5 -148.5t171.5 -51.5q116 0 184 62t68 167q0 108 -65.5 171.5t-186.5 63.5q-82 0 -131 -14v244l274 203v53h-595v248h921v-301l-274 -203v-56q153 -13 252.5 -120t99.5 -291q0 -224 -152 -357t-395 -133q-238 0 -389 131.5t-156 331.5z" />
<glyph unicode="4" horiz-adv-x="1298" d="M74 307v309l626 818h340v-871h179v-256h-179v-307h-284v307h-682zM350 563h416v539h-53l-363 -486v-53z" />
<glyph unicode="5" horiz-adv-x="1277" d="M106 436h295q12 -98 73.5 -149t166.5 -51q115 0 180.5 68.5t65.5 184.5q0 124 -67 190t-177 66q-148 0 -227 -106h-275l64 795h885v-248h-656l-22 -293h53q35 26 62.5 41.5t79.5 29t116 13.5q199 0 329 -134.5t130 -348.5q0 -231 -150 -376t-381 -145q-245 0 -389 129 t-156 334z" />
<glyph unicode="6" horiz-adv-x="1273" d="M100 690q0 170 35 309t104.5 243.5t182 162t258.5 57.5q192 0 326 -109t155 -270h-293q-39 136 -194 136q-127 0 -204 -96t-87 -283h53q99 112 299 112q196 0 329.5 -132.5t133.5 -338.5q0 -140 -63.5 -255t-184.5 -184t-278 -69q-127 0 -228.5 39t-180 121.5t-121 223.5 t-42.5 333zM426 473q0 -120 66.5 -187t173.5 -67t171 66t64 186t-64.5 184t-172.5 64t-173 -63.5t-65 -182.5z" />
<glyph unicode="7" horiz-adv-x="1173" d="M96 1178v256h979v-308l-573 -1126h-307l575 1126v52h-674z" />
<glyph unicode="8" horiz-adv-x="1294" d="M94 403q0 67 20 124.5t52.5 97t67.5 66t73 42.5v53q-68 36 -117 107.5t-49 183.5q0 166 137 275.5t369 109.5t369 -109.5t137 -275.5q0 -58 -15.5 -108t-41.5 -85t-53 -59t-56 -39v-53q38 -16 73 -42.5t67.5 -66t52.5 -97t20 -124.5q0 -87 -36.5 -164.5t-104.5 -137 t-174.5 -94t-237.5 -34.5t-237.5 34.5t-174.5 94t-104.5 137t-36.5 164.5zM387 432q0 -93 67.5 -153t192.5 -60q124 0 192 60.5t68 152.5q0 91 -68 152t-192 61q-125 0 -192.5 -61t-67.5 -152zM426 1047q0 -85 61 -138t160 -53q102 0 161.5 52.5t59.5 138.5q0 81 -60 134.5 t-161 53.5q-98 0 -159.5 -53.5t-61.5 -134.5z" />
<glyph unicode="9" horiz-adv-x="1273" d="M76 954q0 140 63.5 255t184.5 184t278 69q127 0 228.5 -39t180 -121.5t121 -223.5t42.5 -333q0 -170 -35 -309t-104.5 -243.5t-182 -162t-258.5 -57.5q-192 0 -326 109t-155 270h293q39 -135 194 -135q127 0 204 96t87 283h-53q-100 -113 -299 -113q-196 0 -329.5 132.5 t-133.5 338.5zM373 965q0 -120 64.5 -184t172.5 -64t173 63.5t65 182.5q0 120 -66.5 187t-173.5 67t-171 -66t-64 -186z" />
<glyph unicode=":" d="M141 0v311h316v-311h-316zM141 741v312h316v-312h-316z" />
<glyph unicode=";" d="M125 -291l156 240v51h-140v311h316v-362l-158 -240h-174zM141 741v312h316v-312h-316z" />
<glyph unicode="&#x3c;" horiz-adv-x="1355" d="M162 494v196l1032 465v-252l-645 -285v-53l645 -284v-252z" />
<glyph unicode="=" horiz-adv-x="1376" d="M162 258v244h1052v-244h-1052zM162 682v244h1052v-244h-1052z" />
<glyph unicode="&#x3e;" horiz-adv-x="1355" d="M162 29v252l643 284v53l-643 285v252l1032 -465v-196z" />
<glyph unicode="?" horiz-adv-x="1183" d="M74 1020q2 99 34.5 183t93 148.5t156 101t215.5 36.5q123 0 220 -33t158 -91t92.5 -134.5t31.5 -167.5q0 -72 -18 -129.5t-56.5 -103.5t-75.5 -76.5t-98 -71.5q-77 -53 -104 -89t-27 -99v-54h-293v54q0 117 44 187t157 153q10 8 40 29.5t39 28.5t30.5 25.5t28.5 30 t18 30.5t14.5 39t3.5 44q0 76 -51 125t-145 49q-103 0 -157 -51t-58 -164h-293zM391 0v311h314v-311h-314z" />
<glyph unicode="@" horiz-adv-x="1998" d="M104 430q0 209 70 392t195 315t306.5 208t395.5 76q166 0 315 -52t262 -146.5t179.5 -238t66.5 -314.5q0 -126 -30 -235t-87 -191t-145.5 -129t-199.5 -47q-203 0 -258 125h-39q-93 -125 -261 -125q-155 0 -242 99t-87 273q0 136 53 252t154 188t229 72q76 0 129 -28 t76 -68h39l16 68h229l-86 -521q-10 -80 -10 -92q0 -58 28.5 -83t84.5 -25q48 0 94 26.5t86 80t64 147t24 213.5q0 137 -49 253t-138.5 199t-221.5 129.5t-291 46.5q-172 0 -321 -62t-257.5 -173.5t-170.5 -274.5t-62 -356q0 -110 25 -211t79.5 -190.5t134.5 -155 t196.5 -103.5t258.5 -38q256 0 471 141l59 -108q-239 -156 -540 -156q-249 0 -436.5 103t-287.5 288.5t-100 427.5zM795 449q0 -99 39 -148t108 -49q98 0 160.5 93.5t62.5 227.5q0 197 -149 197q-99 0 -160 -95.5t-61 -225.5z" />
<glyph unicode="A" horiz-adv-x="1478" d="M37 0l465 1462h473l467 -1462h-309l-119 395h-557l-119 -395h-301zM535 662h397l-154 507h-90z" />
<glyph unicode="B" horiz-adv-x="1482" d="M170 0v1462h686q117 0 210.5 -31t151.5 -84.5t88.5 -122.5t30.5 -149q0 -98 -40 -175t-109 -114v-53q82 -37 136 -120.5t54 -188.5q0 -192 -127 -308t-377 -116h-704zM475 260h354q236 0 236 180q0 187 -231 187h-359v-367zM475 883h344q205 0 205 164q0 161 -207 161 h-342v-325z" />
<glyph unicode="C" horiz-adv-x="1509" d="M100 731q0 225 82 395.5t241.5 266.5t377.5 96q239 0 399 -124.5t197 -328.5h-320q-52 181 -276 181q-96 0 -170.5 -37.5t-121.5 -104.5t-71 -154t-24 -190q0 -139 41 -246t130 -173t216 -66q118 0 194 58t99 163h317q-33 -223 -195.5 -358.5t-414.5 -135.5 q-219 0 -378.5 96t-241 266.5t-81.5 395.5z" />
<glyph unicode="D" horiz-adv-x="1558" d="M170 0v1462h610q329 0 503.5 -196.5t174.5 -534.5q0 -221 -75 -384t-229 -255t-374 -92h-610zM475 272h266q107 0 187 35.5t126.5 99.5t68.5 144.5t22 179.5t-22 179.5t-68.5 144.5t-126.5 99.5t-187 35.5h-266v-918z" />
<glyph unicode="E" horiz-adv-x="1363" d="M170 0v1462h1081v-272h-776v-307h604v-267h-604v-344h799v-272h-1104z" />
<glyph unicode="F" horiz-adv-x="1331" d="M170 0v1462h1079v-272h-774v-336h610v-266h-610v-588h-305z" />
<glyph unicode="G" horiz-adv-x="1558" d="M100 731q0 222 80.5 391.5t242.5 268t386 98.5q246 0 402 -119.5t198 -325.5h-317q-52 173 -285 173q-190 0 -291.5 -134t-101.5 -352t102 -352.5t293 -134.5q162 0 245.5 86.5t88.5 232.5h-346v250h651v-172q0 -105 -22 -200.5t-72 -181.5t-123 -149t-181.5 -100 t-242.5 -37q-224 0 -385.5 98t-241.5 267.5t-80 392.5z" />
<glyph unicode="H" horiz-adv-x="1595" d="M170 0v1462h305v-569h647v569h305v-1462h-305v612h-647v-612h-305z" />
<glyph unicode="I" horiz-adv-x="663" d="M180 0v1462h305v-1462h-305z" />
<glyph unicode="J" horiz-adv-x="1236" d="M59 465h303q15 -219 209 -219q94 0 144.5 63t50.5 185v968h305v-970q0 -245 -132 -382t-366 -137q-149 0 -262.5 56t-180 168t-71.5 268z" />
<glyph unicode="K" horiz-adv-x="1542" d="M170 0v1462h305v-604l598 604h357l-439 -458l508 -1004h-336l-370 735h-54l-264 -264v-471h-305z" />
<glyph unicode="L" horiz-adv-x="1333" d="M170 0v1462h305v-1183h774v-279h-1079z" />
<glyph unicode="M" horiz-adv-x="1808" d="M170 0v1462h469l240 -590h53l237 590h471v-1462h-284v1090h-53l-246 -590h-305l-244 590h-53v-1090h-285z" />
<glyph unicode="N" horiz-adv-x="1601" d="M170 0v1462h395l537 -991h53v991h279v-1462h-396l-536 991h-53v-991h-279z" />
<glyph unicode="O" horiz-adv-x="1626" d="M100 731q0 162 46.5 300t135 240t225 160t306.5 58t306.5 -58t225 -160t135 -240t46.5 -300t-46.5 -300t-135 -240t-225 -160t-306.5 -58t-306.5 58t-225 160t-135 240t-46.5 300zM414 731q0 -139 42.5 -246t134 -173t222.5 -66q100 0 177.5 37.5t125 104t72 153.5 t24.5 190t-24.5 190t-72 154t-125 104.5t-177.5 37.5q-131 0 -222.5 -66t-134 -173.5t-42.5 -246.5z" />
<glyph unicode="P" horiz-adv-x="1464" d="M170 0v1462h668q251 0 389.5 -122.5t138.5 -342.5q0 -223 -138.5 -348t-389.5 -125h-363v-524h-305zM475 793h320q137 0 197.5 50t60.5 150q0 101 -60.5 151t-197.5 50h-320v-401z" />
<glyph unicode="Q" horiz-adv-x="1626" d="M100 731q0 162 46.5 300t135 240t225 160t306.5 58t306.5 -58t225 -160t135 -240t46.5 -300q0 -361 -215 -573l186 -316h-276l-109 187q-141 -56 -299 -56q-170 0 -306.5 58t-225 160t-135 240t-46.5 300zM414 731q0 -139 42.5 -246t134 -173t222.5 -66q82 0 158 28 l-232 402h267l141 -240q65 127 65 295q0 103 -24.5 190t-72 154t-125 104.5t-177.5 37.5q-131 0 -222.5 -66t-134 -173.5t-42.5 -246.5z" />
<glyph unicode="R" horiz-adv-x="1486" d="M170 0v1462h688q244 0 379 -119.5t135 -334.5q0 -136 -56 -236t-161 -156l219 -616h-307l-197 551h-395v-551h-305zM475 811h340q131 0 188.5 48.5t57.5 144.5q0 103 -62.5 146.5t-214.5 43.5h-309v-383z" />
<glyph unicode="S" horiz-adv-x="1413" d="M90 446h311q35 -210 326 -210q123 0 195.5 48.5t72.5 135.5q0 82 -49.5 122.5t-148.5 59.5l-279 49q-184 32 -279.5 133.5t-95.5 266.5q0 91 37 170t105.5 139t174 94.5t234.5 34.5q240 0 394.5 -115t179.5 -313h-312q-20 87 -84.5 126.5t-181.5 39.5q-104 0 -171.5 -42 t-67.5 -124q0 -67 48.5 -101t133.5 -49l272 -49q398 -75 398 -428q0 -93 -36.5 -175t-107 -146.5t-185 -102t-259.5 -37.5q-275 0 -438 126.5t-187 346.5z" />
<glyph unicode="T" horiz-adv-x="1280" d="M33 1194v268h1214v-268h-454v-1194h-306v1194h-454z" />
<glyph unicode="U" horiz-adv-x="1556" d="M166 539v923h305v-917q0 -137 80.5 -218t226.5 -81q147 0 227 80.5t80 218.5v917h306v-923q0 -272 -159.5 -419t-455.5 -147q-293 0 -451.5 147t-158.5 419z" />
<glyph unicode="V" horiz-adv-x="1445" d="M37 1462h317l324 -1167h94l324 1167h313l-432 -1462h-508z" />
<glyph unicode="W" horiz-adv-x="1898" d="M109 1462h292l123 -1100h54l182 658h381l184 -658h51l125 1100h289l-174 -1462h-447l-192 735h-53l-195 -735h-446z" />
<glyph unicode="X" horiz-adv-x="1421" d="M39 0l403 768l-348 694h314l272 -536h63l281 536h309l-354 -686l403 -776h-335l-306 602h-63l-311 -602h-328z" />
<glyph unicode="Y" horiz-adv-x="1390" d="M31 1462h321l314 -583h57l313 583h324l-512 -942v-520h-307v520z" />
<glyph unicode="Z" horiz-adv-x="1363" d="M90 0v330l766 803v57h-711v272h1096v-329l-762 -803v-58h795v-272h-1184z" />
<glyph unicode="[" horiz-adv-x="780" d="M141 -289v1843h531v-211h-283v-1421h283v-211h-531z" />
<glyph unicode="\" horiz-adv-x="899" d="M51 1554h234l618 -1843h-239z" />
<glyph unicode="]" horiz-adv-x="780" d="M109 -78h282v1421h-282v211h530v-1843h-530v211z" />
<glyph unicode="^" horiz-adv-x="1204" d="M78 559l432 860h186l430 -860h-264l-233 473h-54l-231 -473h-266z" />
<glyph unicode="_" horiz-adv-x="1050" d="M-2 -129h1055v-186h-1055v186z" />
<glyph unicode="`" horiz-adv-x="655" d="M82 1489h301l190 -297h-254z" />
<glyph unicode="a" horiz-adv-x="1200" d="M78 324q0 65 24 124.5t72.5 111.5t134 83t197.5 31h280v26q0 164 -186 164q-166 0 -178 -112h-285q3 99 62 174t159.5 114t227.5 39q225 0 351 -95.5t126 -299.5v-684h-264v90h-54q-100 -117 -294 -117q-172 0 -272.5 102.5t-100.5 248.5zM365 346q0 -71 48.5 -108 t137.5 -37q104 0 169.5 61.5t65.5 159.5v65h-225q-196 0 -196 -141z" />
<glyph unicode="b" horiz-adv-x="1314" d="M152 0v1489h286v-533h54q91 123 284 123q135 0 237.5 -72t156 -197t53.5 -284q0 -243 -121 -398t-326 -155q-198 0 -295 123h-53v-96h-276zM428 526q0 -135 65 -225t191 -90q123 0 187.5 88.5t64.5 226.5t-64.5 226t-187.5 88q-126 0 -191 -89.5t-65 -224.5z" />
<glyph unicode="c" horiz-adv-x="1193" d="M92 526q0 250 144 401.5t387 151.5q196 0 324.5 -99.5t148.5 -262.5h-285q-35 123 -186 123q-126 0 -186 -87t-60 -225q0 -67 14 -122.5t42.5 -100t77 -69.5t112.5 -25q85 0 134.5 37t61.5 106h283q-20 -171 -152 -276t-329 -105q-244 0 -387.5 151t-143.5 402z" />
<glyph unicode="d" horiz-adv-x="1314" d="M92 526q0 243 121 398t326 155q193 0 284 -123h54v533h286v-1489h-276v96h-53q-97 -123 -295 -123q-205 0 -326 155t-121 398zM379 526q0 -138 64.5 -226.5t187.5 -88.5q126 0 191 90t65 225t-65 224.5t-191 89.5q-123 0 -187.5 -88t-64.5 -226z" />
<glyph unicode="e" horiz-adv-x="1222" d="M92 530q0 252 143.5 400.5t387.5 148.5q233 0 367.5 -139t139.5 -360v-86h-753q6 -137 70.5 -210t185.5 -73q154 0 196 111h291q-33 -163 -157.5 -256t-333.5 -93q-249 0 -393 151.5t-144 405.5zM387 684h451q-13 83 -67.5 131.5t-149.5 48.5q-188 0 -234 -180z" />
<glyph unicode="f" horiz-adv-x="817" d="M49 813v240h154v75q0 96 31 166.5t88 112.5t130.5 62t165.5 20h136v-240h-131q-70 0 -102 -37.5t-32 -97.5v-61h265v-240h-265v-813h-286v813h-154z" />
<glyph unicode="g" horiz-adv-x="1316" d="M92 547q0 234 126.5 383t334.5 149q103 0 176 -35.5t107 -87.5h53v97h276v-1002q0 -222 -146 -352.5t-382 -130.5q-220 0 -354.5 91.5t-151.5 262.5h285q21 -129 217 -129q128 0 187 77t59 206v61h-54q-86 -121 -274 -121q-209 0 -334 147.5t-125 383.5zM379 547 q0 -131 66.5 -211t185.5 -80q123 0 190.5 82.5t67.5 208.5q0 128 -67.5 210.5t-190.5 82.5q-119 0 -185.5 -81t-66.5 -212z" />
<glyph unicode="h" horiz-adv-x="1300" d="M152 0v1489h286v-533h54q91 123 286 123q193 0 289 -112.5t96 -319.5v-647h-286v596q0 229 -205 229q-105 0 -169.5 -78t-64.5 -188v-559h-286z" />
<glyph unicode="i" horiz-adv-x="593" d="M152 1233v256h290v-256h-290zM154 0v1053h286v-1053h-286z" />
<glyph unicode="j" horiz-adv-x="616" d="M-74 -170h94q156 0 156 162v1061h287v-1086q0 -101 -30.5 -175t-86 -117.5t-127 -64t-160.5 -20.5h-133v240zM174 1233v256h291v-256h-291z" />
<glyph unicode="k" horiz-adv-x="1226" d="M152 0v1489h288v-848l389 412h320l-299 -326l354 -727h-301l-244 494h-53l-166 -187v-307h-288z" />
<glyph unicode="l" horiz-adv-x="589" d="M152 0v1489h286v-1489h-286z" />
<glyph unicode="m" horiz-adv-x="1855" d="M152 0v1053h276v-97h53q77 123 262 123q187 0 269 -123h53q91 123 287 123q184 0 275 -109t91 -306v-664h-286v608q0 108 -38 162.5t-122 54.5q-95 0 -144 -65t-49 -172v-588h-286v608q0 217 -160 217q-97 0 -146 -73t-49 -187v-565h-286z" />
<glyph unicode="n" horiz-adv-x="1300" d="M152 0v1053h276v-97h53q95 123 293 123q194 0 291.5 -112.5t97.5 -319.5v-647h-286v596q0 111 -53 170t-152 59q-105 0 -169.5 -78t-64.5 -188v-559h-286z" />
<glyph unicode="o" horiz-adv-x="1273" d="M92 526q0 249 148.5 401t396.5 152q250 0 397.5 -152t147.5 -401t-147.5 -401t-397.5 -152q-248 0 -396.5 152t-148.5 401zM379 526q0 -88 26.5 -157.5t86 -113.5t145.5 -44q128 0 193 89t65 226q0 87 -26 156t-86 113.5t-146 44.5q-127 0 -192.5 -89.5t-65.5 -224.5z " />
<glyph unicode="p" horiz-adv-x="1314" d="M152 -410v1463h276v-97h53q97 123 295 123q205 0 326 -155t121 -398q0 -245 -121.5 -399t-325.5 -154q-193 0 -284 123h-54v-506h-286zM428 526q0 -135 65 -225t191 -90q123 0 187.5 88.5t64.5 226.5t-64.5 226t-187.5 88q-126 0 -191 -89.5t-65 -224.5z" />
<glyph unicode="q" horiz-adv-x="1314" d="M92 526q0 243 121 398t326 155q198 0 295 -123h53v97h276v-1463h-286v506h-54q-91 -123 -284 -123q-206 0 -326.5 153.5t-120.5 399.5zM379 526q0 -138 64.5 -226.5t187.5 -88.5q126 0 191 90t65 225t-65 224.5t-191 89.5q-123 0 -187.5 -88t-64.5 -226z" />
<glyph unicode="r" horiz-adv-x="917" d="M152 0v1053h276v-119h53q32 47 101 83t182 36h98v-267h-102q-322 0 -322 -325v-461h-286z" />
<glyph unicode="s" horiz-adv-x="1118" d="M76 332h284q20 -137 209 -137q88 0 135.5 29t47.5 85q0 52 -35.5 77.5t-116.5 39.5l-205 33q-134 25 -208 94t-74 197q0 144 113 236.5t335 92.5q194 0 311.5 -85.5t135.5 -229.5h-285q-18 94 -170 94q-70 0 -112 -22.5t-42 -67.5q0 -40 26.5 -57t86.5 -29l190 -29 q336 -52 336 -338q0 -141 -123.5 -241.5t-343.5 -100.5q-232 0 -354.5 94.5t-140.5 264.5z" />
<glyph unicode="t" horiz-adv-x="829" d="M49 813v240h154v295h286v-295h232v-240h-232v-453q0 -116 136 -116h96v-244h-100q-76 0 -136 9t-114 31.5t-90 59t-57 93.5t-21 133v487h-154z" />
<glyph unicode="u" horiz-adv-x="1300" d="M137 406v647h287v-596q0 -111 53 -170.5t152 -59.5q105 0 169 78.5t64 188.5v559h287v-1053h-277v96h-53q-95 -123 -293 -123q-194 0 -291.5 113t-97.5 320z" />
<glyph unicode="v" horiz-adv-x="1183" d="M41 1053h293l217 -797h88l209 797h293l-303 -1053h-498z" />
<glyph unicode="w" horiz-adv-x="1536" d="M80 1053h272l90 -723h54l131 434h288l132 -434h53l88 723h268l-145 -1053h-367l-149 494h-54l-149 -494h-369z" />
<glyph unicode="x" horiz-adv-x="1236" d="M68 0l301 541l-271 512h297l189 -363h75l193 363h293l-275 -508l299 -545h-309l-205 387h-75l-209 -387h-303z" />
<glyph unicode="y" horiz-adv-x="1216" d="M37 1053h299l262 -561h53l242 561h289l-635 -1463h-287l223 519z" />
<glyph unicode="z" horiz-adv-x="1134" d="M102 0v291l527 469v53h-494v240h881v-293l-527 -469v-53h543v-238h-930z" />
<glyph unicode="{" horiz-adv-x="874" d="M106 522v221h50q79 0 112 48.5t33 146.5v242q0 172 103 273t284 101h115v-211h-72q-96 0 -139 -52.5t-43 -164.5v-235q0 -95 -37 -153.5t-100 -78.5v-53q63 -20 100 -78t37 -153v-236q0 -112 43 -164.5t139 -52.5h72v-211h-115q-181 0 -284 101.5t-103 273.5v242 q0 98 -33 146t-112 48h-50z" />
<glyph unicode="|" horiz-adv-x="552" d="M162 -289v1843h229v-1843h-229z" />
<glyph unicode="}" horiz-adv-x="874" d="M72 -78h71q96 0 139.5 53t43.5 164v236q0 95 37 153t100 78v53q-63 20 -100 78.5t-37 153.5v235q0 111 -43.5 164t-139.5 53h-71v211h114q181 0 284 -101t103 -273v-242q0 -98 33.5 -146.5t112.5 -48.5h49v-221h-49q-79 0 -112.5 -48t-33.5 -146v-242q0 -172 -103 -273.5 t-284 -101.5h-114v211z" />
<glyph unicode="~" horiz-adv-x="1374" d="M162 432q0 183 77.5 273t215.5 90q53 0 108 -19.5t100 -46.5t87 -54.5t84.5 -47t78.5 -19.5q103 0 103 146h196q0 -183 -78 -273t-216 -90q-53 0 -107 19.5t-98.5 47t-87 54.5t-85.5 46.5t-79 19.5q-103 0 -103 -146h-196z" />
<glyph unicode="&#xa2;" horiz-adv-x="1193" d="M92 526q0 233 126 381t343 168v142h109v-140q178 -12 292 -109t134 -251h-285q-30 109 -141 121v-623q63 6 101.5 42.5t49.5 96.5h283q-20 -162 -137 -264.5t-297 -114.5v-139h-109v141q-216 17 -342.5 166t-126.5 383zM379 528q0 -120 45 -206.5t137 -102.5v615 q-93 -19 -137.5 -103t-44.5 -203z" />
<glyph unicode="&#xa3;" horiz-adv-x="1325" d="M94 0v256h35q77 0 109 45t32 131v127h-174v229h174v203q0 213 122 342t345 129q220 0 340.5 -121.5t128.5 -322.5h-295q-5 93 -45 137.5t-125 44.5q-88 0 -133 -53t-45 -156v-203h441v-229h-441v-96q0 -58 -11.5 -91.5t-41.5 -62.5v-53h747v-256h-1163z" />
<glyph unicode="&#xa5;" horiz-adv-x="1341" d="M51 1434h295l295 -643h57l297 643h295l-307 -643h191v-142h-259l-59 -125h318v-141h-357v-383h-295v383h-356v141h319l-61 125h-258v142h192z" />
<glyph unicode="&#xa8;" horiz-adv-x="806" d="M82 1233v256h242v-256h-242zM485 1233v256h240v-256h-240z" />
<glyph unicode="&#xa9;" horiz-adv-x="1740" d="M113 731q0 160 58.5 301t159 241t241 158t298.5 58q159 0 300 -58t242 -158t159.5 -241t58.5 -301q0 -214 -99.5 -387.5t-273.5 -272t-387 -98.5q-214 0 -387.5 98.5t-271.5 272t-98 387.5zM248 731q0 -181 79 -325.5t221 -227t322 -82.5q179 0 323 83.5t224 228.5 t80 323q0 179 -80 324.5t-224 229t-323 83.5t-322 -83.5t-221.5 -229t-78.5 -324.5zM508 729q0 179 100 292.5t279 113.5q140 0 229.5 -72.5t108.5 -192.5h-181q-24 107 -157 107q-100 0 -148.5 -66.5t-48.5 -181.5q0 -112 48.5 -179t148.5 -67q145 0 166 127h178 q-21 -128 -111 -206t-233 -78q-179 0 -279 112.5t-100 290.5z" />
<glyph unicode="&#xab;" horiz-adv-x="1345" d="M106 508v168l306 315h309l-350 -373v-53l350 -375h-309zM625 508v168l305 315h309l-350 -373v-53l350 -375h-309z" />
<glyph unicode="&#xad;" horiz-adv-x="813" d="M96 455v247h621v-247h-621z" />
<glyph unicode="&#xae;" horiz-adv-x="1740" d="M113 731q0 160 58.5 301t159 241t241 158t298.5 58q159 0 300 -58t242 -158t159.5 -241t58.5 -301q0 -214 -99.5 -387.5t-273.5 -272t-387 -98.5q-214 0 -387.5 98.5t-271.5 272t-98 387.5zM248 731q0 -181 79 -325.5t221 -227t322 -82.5q179 0 323 83.5t224 228.5 t80 323q0 179 -80 324.5t-224 229t-323 83.5t-322 -83.5t-221.5 -229t-78.5 -324.5zM573 340v780h373q131 0 203 -64.5t72 -181.5q0 -142 -113 -206l117 -328h-181l-104 291h-190v-291h-177zM750 780h168q122 0 122 92q0 95 -122 95h-168v-187z" />
<glyph unicode="&#xb4;" horiz-adv-x="655" d="M82 1192l188 297h303l-239 -297h-252z" />
<glyph unicode="&#xb8;" horiz-adv-x="608" d="M82 -303h147q5 -22 23.5 -36.5t48.5 -14.5q33 0 53.5 19.5t20.5 51.5t-20.5 51t-53.5 19q-38 0 -63 -25h-127l108 283h105l-62 -164h29q27 21 80 21q68 0 112.5 -48t44.5 -128q0 -81 -58 -138t-173 -57q-98 0 -154 49t-61 117z" />
<glyph unicode="&#xbb;" horiz-adv-x="1345" d="M106 190l351 375v53l-351 373h310l305 -315v-168l-305 -318h-310zM625 190l350 375v53l-350 373h309l305 -315v-168l-305 -318h-309z" />
<glyph unicode="&#x2c6;" horiz-adv-x="858" d="M82 1192l225 297h244l225 -297h-217l-106 135h-54l-104 -135h-213z" />
<glyph unicode="&#x2da;" horiz-adv-x="647" d="M82 1405q0 98 71.5 166.5t170.5 68.5q102 0 171.5 -68t69.5 -167t-69.5 -167.5t-171.5 -68.5q-99 0 -170.5 69t-71.5 167zM221 1405q0 -42 30.5 -72t72.5 -30q43 0 73.5 29.5t30.5 72.5t-30.5 73.5t-73.5 30.5q-42 0 -72.5 -30.5t-30.5 -73.5z" />
<glyph unicode="&#x2dc;" horiz-adv-x="845" d="M82 1196q0 134 53.5 210.5t155.5 76.5q43 0 85.5 -18.5t70 -40t61 -40t61.5 -18.5q66 0 66 117h129q0 -133 -53 -210t-156 -77q-43 0 -85.5 18.5t-69.5 40t-60 40t-61 18.5q-68 0 -68 -117h-129z" />
<glyph unicode="&#x401;" horiz-adv-x="1363" d="M170 0v1462h1081v-272h-776v-307h604v-267h-604v-344h799v-272h-1104zM385 1602v233h242v-233h-242zM788 1602v233h240v-233h-240z" />
<glyph unicode="&#x402;" horiz-adv-x="1697" d="M33 1194v268h1202v-268h-504v-336q132 31 322 31q120 0 214.5 -25.5t156 -68t101.5 -102t57 -124t17 -137.5q0 -101 -26 -180.5t-71 -131t-110 -85.5t-137.5 -48t-158.5 -14q-94 0 -109 9v272q32 -8 78 -8q221 0 221 182q0 91 -68.5 139.5t-226.5 48.5q-136 0 -260 -28 v-588h-305v1194h-393z" />
<glyph unicode="&#x403;" horiz-adv-x="1306" d="M170 0v1462h1055v-272h-750v-1190h-305zM514 1550l188 297h304l-240 -297h-252z" />
<glyph unicode="&#x404;" horiz-adv-x="1505" d="M100 731q0 226 80 396t238 266t377 96q238 0 398.5 -120t197.5 -318h-318q-26 79 -99.5 122.5t-182.5 43.5q-156 0 -249 -92.5t-114 -250.5h541v-266h-543q18 -165 113 -263.5t256 -98.5q116 0 192.5 49t99.5 137h320q-30 -205 -194.5 -332t-415.5 -127 q-163 0 -295.5 56.5t-220 157t-134.5 239.5t-47 305z" />
<glyph unicode="&#x405;" horiz-adv-x="1413" d="M90 446h311q35 -210 326 -210q123 0 195.5 48.5t72.5 135.5q0 82 -49.5 122.5t-148.5 59.5l-279 49q-184 32 -279.5 133.5t-95.5 266.5q0 91 37 170t105.5 139t174 94.5t234.5 34.5q240 0 394.5 -115t179.5 -313h-312q-20 87 -84.5 126.5t-181.5 39.5q-104 0 -171.5 -42 t-67.5 -124q0 -67 48.5 -101t133.5 -49l272 -49q398 -75 398 -428q0 -93 -36.5 -175t-107 -146.5t-185 -102t-259.5 -37.5q-275 0 -438 126.5t-187 346.5z" />
<glyph unicode="&#x406;" horiz-adv-x="663" d="M180 0v1462h305v-1462h-305z" />
<glyph unicode="&#x407;" horiz-adv-x="665" d="M12 1602v233h242v-233h-242zM180 0v1462h305v-1462h-305zM416 1602v233h239v-233h-239z" />
<glyph unicode="&#x408;" horiz-adv-x="1236" d="M59 465h303q15 -219 209 -219q94 0 144.5 63t50.5 185v968h305v-970q0 -245 -132 -382t-366 -137q-149 0 -262.5 56t-180 168t-71.5 268z" />
<glyph unicode="&#x409;" horiz-adv-x="2355" d="M43 0v299h51q45 0 74 5.5t57.5 24t45 52.5t29.5 91.5t18.5 141.5t5.5 201v647h1058v-495h332q257 0 400 -127.5t143 -354.5q0 -229 -142.5 -357t-400.5 -128h-639v1190h-463v-395q0 -169 -13.5 -294.5t-43 -213t-69.5 -144t-101.5 -88t-128.5 -43.5t-160 -12h-53z M1382 268h285q149 0 214 53.5t65 161.5q0 107 -65.5 161t-213.5 54h-285v-430z" />
<glyph unicode="&#x40a;" horiz-adv-x="2379" d="M170 0v1462h305v-569h627v569h305v-495h334q257 0 398.5 -127.5t141.5 -354.5q0 -229 -141.5 -357t-398.5 -128h-639v612h-627v-612h-305zM1407 268h285q149 0 213.5 53.5t64.5 161.5t-64.5 161.5t-213.5 53.5h-285v-430z" />
<glyph unicode="&#x40b;" horiz-adv-x="1703" d="M33 1194v268h1202v-268h-504v-340q149 35 326 35q84 0 154 -9t122 -23t92.5 -38.5t67.5 -48.5t46.5 -59.5t29.5 -65t15.5 -72.5t7 -74t1.5 -77v-422h-305v373q0 26 -0.5 40.5t-3 38.5t-8 38t-16 33.5t-25.5 31t-38 25t-53 20.5t-70.5 11.5t-90.5 4.5q-141 0 -252 -32 v-584h-305v1194h-393z" />
<glyph unicode="&#x40c;" horiz-adv-x="1507" d="M170 0v1462h305v-571h346l269 571h315l-328 -710l346 -752h-315l-285 614h-348v-614h-305zM610 1571l187 264h313l-240 -264h-260z" />
<glyph unicode="&#x40e;" horiz-adv-x="1396" d="M23 1462h319l342 -655h57l310 655h309l-701 -1462h-305l209 438zM315 1851h226q6 -57 47.5 -92t113.5 -35q71 0 112.5 35t49.5 92h226q-12 -148 -114 -231.5t-274 -83.5t-273.5 83t-113.5 232z" />
<glyph unicode="&#x40f;" horiz-adv-x="1572" d="M170 0v1462h305v-1190h625v1190h305v-1462h-465v-358h-305v358h-465z" />
<glyph unicode="&#x410;" horiz-adv-x="1478" d="M37 0l465 1462h473l467 -1462h-309l-119 395h-557l-119 -395h-301zM535 662h397l-154 507h-90z" />
<glyph unicode="&#x411;" horiz-adv-x="1468" d="M170 0v1462h1071v-272h-766v-279h385q243 0 376.5 -119.5t133.5 -334.5t-133.5 -336t-376.5 -121h-690zM475 268h328q138 0 196 47t58 146q0 97 -58.5 145.5t-195.5 48.5h-328v-387z" />
<glyph unicode="&#x412;" horiz-adv-x="1482" d="M170 0v1462h686q117 0 210.5 -31t151.5 -84.5t88.5 -122.5t30.5 -149q0 -98 -40 -175t-109 -114v-53q82 -37 136 -120.5t54 -188.5q0 -192 -127 -308t-377 -116h-704zM475 260h354q236 0 236 180q0 187 -231 187h-359v-367zM475 883h344q205 0 205 164q0 161 -207 161 h-342v-325z" />
<glyph unicode="&#x413;" horiz-adv-x="1306" d="M170 0v1462h1055v-272h-750v-1190h-305z" />
<glyph unicode="&#x414;" horiz-adv-x="1636" d="M33 272h151q174 309 174 869v321h1020v-1190h209v-630h-297v358h-960v-358h-297v630zM494 272h587v918h-440v-129q0 -513 -147 -789z" />
<glyph unicode="&#x415;" horiz-adv-x="1363" d="M170 0v1462h1081v-272h-776v-307h604v-267h-604v-344h799v-272h-1104z" />
<glyph unicode="&#x416;" horiz-adv-x="2205" d="M92 0l309 741l-290 721h311l229 -581h303v581h297v-581h303l230 581h311l-291 -721l310 -741h-312l-248 604h-303v-604h-297v604h-303l-248 -604h-311z" />
<glyph unicode="&#x417;" horiz-adv-x="1425" d="M80 444h321q52 -198 322 -198q129 0 203.5 51t74.5 139q0 182 -256 182h-215v267h215q111 0 160 45.5t49 120.5q0 81 -66.5 123.5t-170.5 42.5q-233 0 -266 -168h-316q23 210 178 325t408 115q254 0 400.5 -112t146.5 -290q0 -108 -41.5 -178.5t-106.5 -105.5v-53 q93 -34 147 -115t54 -211q0 -195 -161 -323t-437 -128q-294 0 -455 123t-188 348z" />
<glyph unicode="&#x418;" horiz-adv-x="1613" d="M170 0v1462h285v-1020h53l526 1020h412v-1462h-287v1042h-53l-539 -1042h-397z" />
<glyph unicode="&#x419;" horiz-adv-x="1613" d="M170 0v1462h285v-1020h53l526 1020h412v-1462h-287v1042h-53l-539 -1042h-397zM420 1851h225q6 -57 48 -92t114 -35q71 0 112.5 35t49.5 92h225q-12 -149 -113.5 -232t-273.5 -83t-273.5 83t-113.5 232z" />
<glyph unicode="&#x41a;" horiz-adv-x="1466" d="M170 0v1462h305v-571h346l269 571h315l-328 -710l346 -752h-315l-285 614h-348v-614h-305z" />
<glyph unicode="&#x41b;" horiz-adv-x="1562" d="M43 0v299h51q45 0 74 5.5t57.5 24t45 52.5t29.5 91.5t18.5 141.5t5.5 201v647h1071v-1462h-308v1190h-475v-395q0 -169 -13.5 -294.5t-43 -213t-69.5 -144t-101.5 -88t-128.5 -43.5t-160 -12h-53z" />
<glyph unicode="&#x41c;" horiz-adv-x="1808" d="M170 0v1462h469l240 -590h53l237 590h471v-1462h-284v1090h-53l-246 -590h-305l-244 590h-53v-1090h-285z" />
<glyph unicode="&#x41d;" horiz-adv-x="1595" d="M170 0v1462h305v-569h647v569h305v-1462h-305v612h-647v-612h-305z" />
<glyph unicode="&#x41e;" horiz-adv-x="1626" d="M100 731q0 162 46.5 300t135 240t225 160t306.5 58t306.5 -58t225 -160t135 -240t46.5 -300t-46.5 -300t-135 -240t-225 -160t-306.5 -58t-306.5 58t-225 160t-135 240t-46.5 300zM414 731q0 -139 42.5 -246t134 -173t222.5 -66q100 0 177.5 37.5t125 104t72 153.5 t24.5 190t-24.5 190t-72 154t-125 104.5t-177.5 37.5q-131 0 -222.5 -66t-134 -173.5t-42.5 -246.5z" />
<glyph unicode="&#x41f;" horiz-adv-x="1579" d="M170 0v1462h1241v-1462h-305v1190h-631v-1190h-305z" />
<glyph unicode="&#x420;" horiz-adv-x="1464" d="M170 0v1462h668q251 0 389.5 -122.5t138.5 -342.5q0 -223 -138.5 -348t-389.5 -125h-363v-524h-305zM475 793h320q137 0 197.5 50t60.5 150q0 101 -60.5 151t-197.5 50h-320v-401z" />
<glyph unicode="&#x421;" horiz-adv-x="1509" d="M100 731q0 225 82 395.5t241.5 266.5t377.5 96q239 0 399 -124.5t197 -328.5h-320q-52 181 -276 181q-96 0 -170.5 -37.5t-121.5 -104.5t-71 -154t-24 -190q0 -139 41 -246t130 -173t216 -66q118 0 194 58t99 163h317q-33 -223 -195.5 -358.5t-414.5 -135.5 q-219 0 -378.5 96t-241 266.5t-81.5 395.5z" />
<glyph unicode="&#x422;" horiz-adv-x="1280" d="M33 1194v268h1214v-268h-454v-1194h-306v1194h-454z" />
<glyph unicode="&#x423;" horiz-adv-x="1396" d="M23 1462h319l342 -655h57l310 655h309l-701 -1462h-305l209 438z" />
<glyph unicode="&#x424;" horiz-adv-x="1837" d="M86 752q0 189 86 322.5t234.5 198t347.5 64.5h18v172h291v-172h20q199 0 347.5 -64.5t233.5 -198t85 -322.5q0 -193 -85.5 -326.5t-233 -196.5t-347.5 -63h-20v-193h-291v193h-18q-309 0 -488.5 149t-179.5 437zM391 752q0 -163 96 -244.5t267 -81.5h18v651h-18 q-171 0 -267 -80t-96 -245zM1063 426h20q170 0 265.5 81.5t95.5 244.5q0 166 -95 245.5t-266 79.5h-20v-651z" />
<glyph unicode="&#x425;" horiz-adv-x="1421" d="M39 0l403 768l-348 694h314l272 -536h63l281 536h309l-354 -686l403 -776h-335l-306 602h-63l-311 -602h-328z" />
<glyph unicode="&#x426;" horiz-adv-x="1660" d="M170 0v1462h305v-1190h623v1190h305v-1190h209v-630h-297v358h-1145z" />
<glyph unicode="&#x427;" horiz-adv-x="1443" d="M109 997v465h305v-418q0 -26 0.5 -40t3 -38t8 -38t16 -33.5t25.5 -30.5t38 -24.5t53 -20.5t71 -11.5t90 -4.5q137 0 252 33v626h305v-1462h-305v565q-146 -35 -326 -35q-84 0 -154 9t-122 23t-92.5 38t-67.5 48t-46.5 59.5t-29.5 65t-15.5 72.5t-7 74.5t-1.5 77.5z" />
<glyph unicode="&#x428;" horiz-adv-x="2154" d="M170 0v1462h297v-1190h463v1190h297v-1190h463v1190h297v-1462h-1817z" />
<glyph unicode="&#x429;" horiz-adv-x="2244" d="M170 0v1462h297v-1190h463v1190h297v-1190h463v1190h297v-1190h208v-630h-297v358h-1728z" />
<glyph unicode="&#x42a;" horiz-adv-x="1685" d="M14 1190v272h678v-495h352q258 0 400.5 -127.5t142.5 -354.5q0 -229 -142 -357t-401 -128h-657v1190h-373zM692 268h305q148 0 212.5 53.5t64.5 161.5q0 107 -65 161t-212 54h-305v-430z" />
<glyph unicode="&#x42b;" horiz-adv-x="1957" d="M170 0v1462h305v-495h305q257 0 400 -127.5t143 -354.5q0 -229 -142.5 -357t-400.5 -128h-610zM475 268h258q148 0 212.5 53.5t64.5 161.5q0 107 -65 161t-212 54h-258v-430zM1485 0v1462h305v-1462h-305z" />
<glyph unicode="&#x42c;" horiz-adv-x="1468" d="M170 0v1462h305v-495h354q257 0 399 -127.5t142 -354.5q0 -229 -142 -357t-399 -128h-659zM475 268h303q149 0 214 54.5t65 162.5t-65 160.5t-214 52.5h-303v-430z" />
<glyph unicode="&#x42d;" horiz-adv-x="1486" d="M80 432h319q23 -88 99.5 -137t193.5 -49q161 0 256 98.5t113 263.5h-543v266h541q-21 158 -114 250.5t-249 92.5q-109 0 -182.5 -43.5t-99.5 -122.5h-318q37 198 197.5 318t398.5 120q219 0 377 -96.5t237.5 -266t79.5 -395.5q0 -222 -80.5 -392.5t-239.5 -268 t-376 -97.5q-251 0 -415.5 127t-194.5 332z" />
<glyph unicode="&#x42e;" horiz-adv-x="2220" d="M170 0v1462h305v-569h254q43 269 222 432.5t466 163.5q166 0 300.5 -58t221.5 -160t134 -240t47 -300t-47 -300t-134 -240t-221.5 -160t-300.5 -58q-151 0 -275.5 48t-211 133.5t-139.5 202t-68 255.5h-248v-612h-305zM1028 731q0 -138 41.5 -245.5t131 -173.5t216.5 -66 q126 0 215.5 66t131.5 173.5t42 245.5t-42 246t-131.5 174t-215.5 66q-127 0 -216.5 -66t-131 -174t-41.5 -246z" />
<glyph unicode="&#x42f;" horiz-adv-x="1474" d="M102 0l220 616q-105 56 -161.5 156.5t-56.5 235.5q0 215 135 334.5t379 119.5h689v-1462h-306v551h-395l-196 -551h-308zM416 1004q0 -96 57.5 -144.5t188.5 -48.5h339v383h-309q-151 0 -213.5 -43.5t-62.5 -146.5z" />
<glyph unicode="&#x430;" horiz-adv-x="1200" d="M78 324q0 65 24 124.5t72.5 111.5t134 83t197.5 31h280v26q0 164 -186 164q-166 0 -178 -112h-285q3 99 62 174t159.5 114t227.5 39q225 0 351 -95.5t126 -299.5v-684h-264v90h-54q-100 -117 -294 -117q-172 0 -272.5 102.5t-100.5 248.5zM365 346q0 -71 48.5 -108 t137.5 -37q104 0 169.5 61.5t65.5 159.5v65h-225q-196 0 -196 -141z" />
<glyph unicode="&#x431;" horiz-adv-x="1280" d="M92 623q0 76 5 144t17.5 140t32.5 132.5t52.5 117t75 98.5t102 72t131.5 41l270 43q61 11 82 25.5t25 52.5h231q0 -53 -7.5 -93.5t-28.5 -82.5t-65.5 -70.5t-111.5 -40.5l-346 -55q-110 -17 -167.5 -80.5t-80.5 -192.5h53q54 76 132.5 110t191.5 34q225 0 363.5 -146.5 t138.5 -375.5t-150.5 -376t-394.5 -147q-263 0 -407 166.5t-144 483.5zM381 504q0 -80 26.5 -144.5t87 -106.5t146.5 -42q127 0 192.5 84t65.5 209q0 80 -26 143.5t-86 104.5t-146 41q-128 0 -194 -82.5t-66 -206.5z" />
<glyph unicode="&#x432;" horiz-adv-x="1239" d="M152 0v1053h602q158 0 244.5 -71.5t86.5 -195.5q0 -73 -34 -124.5t-86 -77.5v-54q80 -21 129 -82.5t49 -156.5q0 -145 -95.5 -218t-277.5 -73h-618zM432 207h273q81 0 115 30.5t34 86.5q0 118 -149 118h-273v-235zM432 643h244q123 0 123 100q0 103 -123 103h-244v-203z " />
<glyph unicode="&#x433;" horiz-adv-x="1062" d="M152 0v1053h852v-240h-566v-813h-286z" />
<glyph unicode="&#x434;" horiz-adv-x="1419" d="M39 238h156q92 236 92 512v303h887v-815h186v-531h-270v293h-781v-293h-270v531zM467 238h420v575h-342v-65q0 -293 -78 -510z" />
<glyph unicode="&#x435;" horiz-adv-x="1222" d="M92 530q0 252 143.5 400.5t387.5 148.5q233 0 367.5 -139t139.5 -360v-86h-753q6 -137 70.5 -210t185.5 -73q154 0 196 111h291q-33 -163 -157.5 -256t-333.5 -93q-249 0 -393 151.5t-144 405.5zM387 684h451q-13 83 -67.5 131.5t-149.5 48.5q-188 0 -234 -180z" />
<glyph unicode="&#x436;" horiz-adv-x="1775" d="M72 0l247 541l-231 512h287l178 -396h203v396h266v-396h201l178 396h289l-234 -512l250 -541h-293l-190 418h-201v-418h-266v418h-203l-191 -418h-290z" />
<glyph unicode="&#x437;" horiz-adv-x="1167" d="M76 330h264q35 -123 238 -123q202 0 202 112q0 56 -39.5 80.5t-130.5 24.5h-172v219h162q152 0 152 100q0 50 -47.5 76.5t-133.5 26.5q-172 0 -196 -115h-262q17 171 146 259.5t333 88.5q205 0 324.5 -85.5t119.5 -217.5q0 -153 -106 -201v-53q137 -45 137 -217 q0 -145 -130.5 -238.5t-344.5 -93.5q-241 0 -369 93t-147 264z" />
<glyph unicode="&#x438;" horiz-adv-x="1320" d="M152 0v1053h278v-594h49l408 594h282v-1053h-278v592h-49l-412 -592h-278z" />
<glyph unicode="&#x439;" horiz-adv-x="1320" d="M152 0v1053h278v-594h49l408 594h282v-1053h-278v592h-49l-412 -592h-278zM289 1470h221q7 -55 43.5 -89.5t105.5 -34.5q137 0 152 124h221q-12 -145 -107.5 -226t-265.5 -81q-169 0 -263.5 81t-106.5 226z" />
<glyph unicode="&#x43a;" horiz-adv-x="1251" d="M152 0v1053h286v-394h234l200 394h293l-258 -508l275 -545h-301l-213 420h-230v-420h-286z" />
<glyph unicode="&#x43b;" horiz-adv-x="1325" d="M45 0v274h37q69 0 109.5 29t61.5 103t21 204v443h900v-1053h-287v813h-348v-213q0 -223 -50.5 -355.5t-148.5 -188.5t-258 -56h-37z" />
<glyph unicode="&#x43c;" horiz-adv-x="1542" d="M152 0v1053h380l213 -443h54l213 443h379v-1053h-279v672h-53l-168 -340h-240l-168 340h-53v-672h-278z" />
<glyph unicode="&#x43d;" horiz-adv-x="1314" d="M152 0v1053h286v-394h439v394h286v-1053h-286v420h-439v-420h-286z" />
<glyph unicode="&#x43e;" horiz-adv-x="1273" d="M92 526q0 249 148.5 401t396.5 152q250 0 397.5 -152t147.5 -401t-147.5 -401t-397.5 -152q-248 0 -396.5 152t-148.5 401zM379 526q0 -88 26.5 -157.5t86 -113.5t145.5 -44q128 0 193 89t65 226q0 87 -26 156t-86 113.5t-146 44.5q-127 0 -192.5 -89.5t-65.5 -224.5z " />
<glyph unicode="&#x43f;" horiz-adv-x="1306" d="M152 0v1053h1003v-1053h-287v813h-430v-813h-286z" />
<glyph unicode="&#x440;" horiz-adv-x="1314" d="M152 -410v1463h276v-97h53q97 123 295 123q205 0 326 -155t121 -398q0 -245 -121.5 -399t-325.5 -154q-193 0 -284 123h-54v-506h-286zM428 526q0 -135 65 -225t191 -90q123 0 187.5 88.5t64.5 226.5t-64.5 226t-187.5 88q-126 0 -191 -89.5t-65 -224.5z" />
<glyph unicode="&#x441;" horiz-adv-x="1193" d="M92 526q0 250 144 401.5t387 151.5q196 0 324.5 -99.5t148.5 -262.5h-285q-35 123 -186 123q-126 0 -186 -87t-60 -225q0 -67 14 -122.5t42.5 -100t77 -69.5t112.5 -25q85 0 134.5 37t61.5 106h283q-20 -171 -152 -276t-329 -105q-244 0 -387.5 151t-143.5 402z" />
<glyph unicode="&#x442;" horiz-adv-x="1099" d="M61 813v240h977v-240h-344v-813h-286v813h-347z" />
<glyph unicode="&#x443;" horiz-adv-x="1216" d="M37 1053h299l262 -561h53l242 561h289l-635 -1463h-287l223 519z" />
<glyph unicode="&#x444;" horiz-adv-x="1601" d="M92 526q0 152 62 269t185.5 186t293.5 72h29v436h278v-436h29q168 -3 291.5 -72t186 -186.5t62.5 -268.5q0 -238 -150 -382t-419 -144v-410h-278v410h-19q-259 0 -405 146t-146 380zM373 526q0 -131 68 -216t198 -89h23v610h-21q-131 -4 -199.5 -89.5t-68.5 -215.5z M940 221h16q132 4 201.5 89t69.5 216q0 130 -69.5 215.5t-201.5 89.5h-16v-610z" />
<glyph unicode="&#x445;" horiz-adv-x="1236" d="M68 0l301 541l-271 512h297l189 -363h75l193 363h293l-275 -508l299 -545h-309l-205 387h-75l-209 -387h-303z" />
<glyph unicode="&#x446;" horiz-adv-x="1392" d="M152 0v1053h286v-815h422v815h287v-815h186v-531h-270v293h-911z" />
<glyph unicode="&#x447;" horiz-adv-x="1202" d="M92 690v363h289v-308q0 -27 2.5 -46t14 -42t32 -37t58.5 -24t92 -10q105 0 198 22v445h287v-1053h-287v377q-142 -29 -293 -29q-74 0 -133 10.5t-99.5 27.5t-70.5 43.5t-47 54t-27 64.5t-13 69t-3 73z" />
<glyph unicode="&#x448;" horiz-adv-x="1761" d="M152 0v1053h278v-815h313v815h277v-815h313v815h277v-1053h-1458z" />
<glyph unicode="&#x449;" horiz-adv-x="1855" d="M152 0v1053h278v-815h313v815h277v-815h313v815h277v-815h186v-531h-270v293h-1374z" />
<glyph unicode="&#x44a;" horiz-adv-x="1378" d="M35 813v240h590v-308h258q203 0 312.5 -97t109.5 -271q0 -175 -110 -276t-312 -101h-545v813h-303zM625 238h215q98 0 138 35.5t40 105.5q0 71 -40 106t-138 35h-215v-282z" />
<glyph unicode="&#x44b;" horiz-adv-x="1693" d="M152 0v1053h286v-308h238q203 0 312.5 -97t109.5 -271q0 -175 -110 -276t-312 -101h-524zM438 238h197q98 0 137 35.5t39 105.5q0 72 -39 106.5t-137 34.5h-197v-282zM1255 0v1053h287v-1053h-287z" />
<glyph unicode="&#x44c;" horiz-adv-x="1191" d="M152 0v1053h286v-308h258q203 0 312.5 -97t109.5 -271q0 -175 -110 -276t-312 -101h-544zM438 238h217q98 0 137 35.5t39 105.5q0 72 -39 106.5t-137 34.5h-217v-282z" />
<glyph unicode="&#x44d;" horiz-adv-x="1208" d="M92 336h268q19 -63 75 -96t143 -33q109 0 172 58.5t75 158.5h-370v219h366q-14 92 -75.5 147.5t-167.5 55.5q-162 0 -203 -111h-269q30 157 157 250.5t321 93.5q239 0 385.5 -153t146.5 -400q0 -248 -146.5 -400.5t-387.5 -152.5q-197 0 -331 101t-159 262z" />
<glyph unicode="&#x44e;" horiz-adv-x="1783" d="M152 0v1053h280v-394h199q37 192 177 306t345 114q239 0 389 -156.5t150 -396.5q0 -243 -149.5 -398t-389.5 -155q-214 0 -356.5 121.5t-171.5 325.5h-193v-420h-280zM895 526q0 -88 26 -157.5t85 -113.5t145 -44q124 0 189 89.5t65 225.5q0 135 -65 224.5t-189 89.5 q-126 0 -191 -89t-65 -225z" />
<glyph unicode="&#x44f;" horiz-adv-x="1222" d="M106 0l160 414q-155 88 -155 286q0 166 111.5 259.5t316.5 93.5h534v-1053h-287v352h-262l-135 -352h-283zM393 694q0 -65 38 -98t130 -33h225v260h-225q-92 0 -130 -32.5t-38 -96.5z" />
<glyph unicode="&#x451;" horiz-adv-x="1222" d="M92 530q0 252 143.5 400.5t387.5 148.5q233 0 367.5 -139t139.5 -360v-86h-753q6 -137 70.5 -210t185.5 -73q154 0 196 111h291q-33 -163 -157.5 -256t-333.5 -93q-249 0 -393 151.5t-144 405.5zM303 1210v256h242v-256h-242zM387 684h451q-13 83 -67.5 131.5 t-149.5 48.5q-188 0 -234 -180zM707 1210v256h239v-256h-239z" />
<glyph unicode="&#x452;" horiz-adv-x="1331" d="M49 1145v180h150v164h286v-164h371v-180h-371v-279h54q91 123 286 123q193 0 289 -112.5t96 -319.5v-590q0 -109 -33.5 -185t-96 -117t-137.5 -58t-173 -17h-96v240h94q156 0 156 162v514q0 229 -203 229q-107 0 -171.5 -78t-64.5 -188v-469h-286v1145h-150z" />
<glyph unicode="&#x453;" horiz-adv-x="1062" d="M152 0v1053h852v-240h-566v-813h-286zM379 1192l188 297h303l-239 -297h-252z" />
<glyph unicode="&#x454;" horiz-adv-x="1206" d="M92 526q0 247 147 400t386 153q194 0 320.5 -93.5t156.5 -250.5h-268q-40 111 -203 111q-106 0 -168 -55.5t-76 -147.5h367v-219h-371q12 -100 75.5 -158.5t172.5 -58.5q86 0 142 33t75 96h268q-25 -162 -158.5 -262.5t-330.5 -100.5q-241 0 -388 152.5t-147 400.5z" />
<glyph unicode="&#x455;" horiz-adv-x="1118" d="M76 332h284q20 -137 209 -137q88 0 135.5 29t47.5 85q0 52 -35.5 77.5t-116.5 39.5l-205 33q-134 25 -208 94t-74 197q0 144 113 236.5t335 92.5q194 0 311.5 -85.5t135.5 -229.5h-285q-18 94 -170 94q-70 0 -112 -22.5t-42 -67.5q0 -40 26.5 -57t86.5 -29l190 -29 q336 -52 336 -338q0 -141 -123.5 -241.5t-343.5 -100.5q-232 0 -354.5 94.5t-140.5 264.5z" />
<glyph unicode="&#x456;" horiz-adv-x="593" d="M152 1233v256h290v-256h-290zM154 0v1053h286v-1053h-286z" />
<glyph unicode="&#x457;" horiz-adv-x="593" d="M-23 1233v256h242v-256h-242zM154 0v1053h286v-1053h-286zM381 1233v256h240v-256h-240z" />
<glyph unicode="&#x458;" horiz-adv-x="616" d="M-74 -170h94q156 0 156 162v1061h287v-1086q0 -101 -30.5 -175t-86 -117.5t-127 -64t-160.5 -20.5h-133v240zM174 1233v256h291v-256h-291z" />
<glyph unicode="&#x459;" horiz-adv-x="1908" d="M45 0v274h37q69 0 109.5 29t61.5 103t21 204v443h889v-308h250q203 0 312.5 -97t109.5 -271q0 -175 -110 -276t-312 -101h-536v813h-338v-213q0 -223 -50.5 -355.5t-148.5 -188.5t-258 -56h-37zM1163 238h207q98 0 138 35.5t40 105.5q0 76 -43 108.5t-155 32.5h-187v-282 z" />
<glyph unicode="&#x45a;" horiz-adv-x="1890" d="M152 0v1053h286v-394h420v394h287v-308h250q203 0 312.5 -97t109.5 -271q0 -175 -110 -276t-312 -101h-537v420h-420v-420h-286zM1145 238h207q98 0 138 35.5t40 105.5q0 76 -42.5 108.5t-154.5 32.5h-188v-282z" />
<glyph unicode="&#x45b;" horiz-adv-x="1347" d="M49 1145v180h150v164h286v-164h371v-180h-371v-279h54q91 123 286 123q193 0 289 -112.5t96 -319.5v-557h-286v506q0 229 -203 229q-107 0 -171.5 -78t-64.5 -188v-469h-286v1145h-150z" />
<glyph unicode="&#x45c;" horiz-adv-x="1243" d="M152 0v1053h286v-394h234l200 394h293l-258 -508l275 -545h-301l-213 420h-230v-420h-286zM487 1192l189 297h303l-240 -297h-252z" />
<glyph unicode="&#x45e;" horiz-adv-x="1216" d="M37 1053h299l262 -561h53l242 561h289l-635 -1463h-287l223 519zM236 1470h221q7 -55 43.5 -89.5t105.5 -34.5q137 0 152 124h221q-12 -145 -107.5 -226t-265.5 -81q-169 0 -263.5 81t-106.5 226z" />
<glyph unicode="&#x45f;" horiz-adv-x="1298" d="M152 0v1053h286v-815h422v815h287v-1053h-363v-293h-270v293h-362z" />
<glyph unicode="&#x490;" horiz-adv-x="1306" d="M170 0v1462h748v307h307v-579h-750v-1190h-305z" />
<glyph unicode="&#x491;" horiz-adv-x="1038" d="M152 0v1053h559v276h268v-516h-541v-813h-286z" />
<glyph unicode="&#x492;" horiz-adv-x="1370" d="M45 608v234h188v620h1055v-272h-749v-348h419v-234h-419v-608h-306v608h-188z" />
<glyph unicode="&#x493;" horiz-adv-x="1087" d="M41 354v205h154v494h833v-240h-547v-254h348v-205h-348v-354h-286v354h-154z" />
<glyph unicode="&#x49a;" horiz-adv-x="1574" d="M170 0v1462h305v-571h346l269 571h315l-328 -710l219 -480h230v-630h-297v358h-121l-285 614h-348v-614h-305z" />
<glyph unicode="&#x49b;" horiz-adv-x="1316" d="M152 0v1053h286v-394h234l200 394h293l-258 -508l154 -307h196v-531h-270v293h-106l-213 420h-230v-420h-286z" />
<glyph unicode="&#x4a2;" horiz-adv-x="1685" d="M170 0v1462h305v-569h647v569h305v-1190h209v-630h-297v358h-217v612h-647v-612h-305z" />
<glyph unicode="&#x4a3;" horiz-adv-x="1409" d="M152 0v1053h286v-394h439v394h286v-815h187v-531h-271v293h-202v420h-439v-420h-286z" />
<glyph unicode="&#x4ae;" horiz-adv-x="1390" d="M31 1462h321l314 -583h57l313 583h324l-512 -942v-520h-307v520z" />
<glyph unicode="&#x4af;" horiz-adv-x="1185" d="M41 1053h293l217 -887h88l209 887h293l-303 -1141h-105v-322h-287v322h-106z" />
<glyph unicode="&#x4b0;" horiz-adv-x="1390" d="M31 1462h321l314 -583h57l313 583h324l-424 -778h281v-233h-369v-451h-307v451h-369v233h281z" />
<glyph unicode="&#x4b1;" horiz-adv-x="1210" d="M41 1053h293l217 -887h88l209 887h293l-281 -1053h174v-176h-301v-234h-287v234h-309v176h178z" />
<glyph unicode="&#x4ba;" horiz-adv-x="1445" d="M170 0v1462h305v-565q146 35 326 35q84 0 154 -9t122 -23t92.5 -38t67.5 -48t46.5 -59.5t29.5 -65t15.5 -72.5t7 -74.5t1.5 -77.5v-465h-305v418q0 26 -0.5 40t-3 38t-8 38t-16 33.5t-25.5 30.5t-38 24.5t-53 20.5t-71 11.5t-90 4.5q-141 0 -252 -32v-627h-305z" />
<glyph unicode="&#x4bb;" horiz-adv-x="1300" d="M152 0v1489h286v-533h54q91 123 286 123q193 0 289 -112.5t96 -319.5v-647h-286v596q0 229 -205 229q-105 0 -169.5 -78t-64.5 -188v-559h-286z" />
<glyph unicode="&#x4d8;" horiz-adv-x="1579" d="M100 782q0 30 4 80h1051q-21 163 -117.5 261t-263.5 98q-232 0 -291 -170h-317q42 201 200 319.5t404 118.5q170 0 305.5 -57t223 -159t134 -240t46.5 -302q0 -162 -45.5 -300t-131 -240t-219.5 -160t-301 -58q-324 0 -503 214t-179 595zM410 612q8 -165 100 -267.5 t264 -102.5q174 0 271 101.5t110 268.5h-745z" />
<glyph unicode="&#x4d9;" horiz-adv-x="1222" d="M92 528q0 45 2 72h748q-12 117 -76 179.5t-174 62.5q-160 0 -199 -111h-291q31 165 160 256.5t332 91.5q245 0 390.5 -152t145.5 -405t-143 -401t-385 -148q-125 0 -223.5 41.5t-160.5 116.5t-94 175.5t-32 221.5zM375 410q1 -105 62.5 -163.5t166.5 -58.5q109 0 171 56 t69 166h-469z" />
<glyph unicode="&#x4e8;" horiz-adv-x="1626" d="M100 731q0 162 46.5 300t135 240t225 160t306.5 58t306.5 -58t225 -160t135 -240t46.5 -300t-46.5 -300t-135 -240t-225 -160t-306.5 -58t-306.5 58t-225 160t-135 240t-46.5 300zM418 616q18 -168 119.5 -269t275.5 -101q172 0 273 101t122 269h-790zM420 866h786 q-26 163 -124.5 257t-268.5 94q-171 0 -269 -93t-124 -258z" />
<glyph unicode="&#x4e9;" horiz-adv-x="1273" d="M92 526q0 249 148.5 401t396.5 152q250 0 397.5 -152t147.5 -401t-147.5 -401t-397.5 -152q-248 0 -396.5 152t-148.5 401zM387 434q18 -104 80.5 -163.5t169.5 -59.5t169.5 59.5t80.5 163.5h-500zM389 625h496q-18 102 -80 158.5t-168 56.5t-168 -56.5t-80 -158.5z" />
<glyph unicode="&#x2000;" horiz-adv-x="925" />
<glyph unicode="&#x2001;" horiz-adv-x="1851" />
<glyph unicode="&#x2002;" horiz-adv-x="925" />
<glyph unicode="&#x2003;" horiz-adv-x="1851" />
<glyph unicode="&#x2004;" horiz-adv-x="617" />
<glyph unicode="&#x2005;" horiz-adv-x="462" />
<glyph unicode="&#x2006;" horiz-adv-x="308" />
<glyph unicode="&#x2007;" horiz-adv-x="308" />
<glyph unicode="&#x2008;" horiz-adv-x="231" />
<glyph unicode="&#x2009;" horiz-adv-x="370" />
<glyph unicode="&#x200a;" horiz-adv-x="102" />
<glyph unicode="&#x2010;" horiz-adv-x="813" d="M96 455v247h621v-247h-621z" />
<glyph unicode="&#x2011;" horiz-adv-x="813" d="M96 455v247h621v-247h-621z" />
<glyph unicode="&#x2012;" horiz-adv-x="813" d="M96 455v247h621v-247h-621z" />
<glyph unicode="&#x2013;" horiz-adv-x="1271" d="M90 469v221h1090v-221h-1090z" />
<glyph unicode="&#x2014;" horiz-adv-x="1800" d="M90 469v221h1618v-221h-1618z" />
<glyph unicode="&#x2018;" d="M143 860v363l158 239h174l-156 -239v-52h140v-311h-316z" />
<glyph unicode="&#x2019;" d="M125 860l156 240v51h-140v311h316v-362l-158 -240h-174z" />
<glyph unicode="&#x201a;" d="M125 -291l156 240v51h-140v311h316v-362l-158 -240h-174z" />
<glyph unicode="&#x201c;" horiz-adv-x="1054" d="M143 860v363l158 239h174l-156 -239v-52h140v-311h-316zM598 860v363l158 239h174l-156 -239v-52h139v-311h-315z" />
<glyph unicode="&#x201d;" horiz-adv-x="1054" d="M125 860l156 240v51h-140v311h316v-362l-158 -240h-174zM580 860l155 240v51h-139v311h315v-362l-157 -240h-174z" />
<glyph unicode="&#x201e;" horiz-adv-x="1054" d="M125 -291l156 240v51h-140v311h316v-362l-158 -240h-174zM580 -291l155 240v51h-139v311h315v-362l-157 -240h-174z" />
<glyph unicode="&#x2022;" horiz-adv-x="851" d="M125 729q0 125 88.5 213t212.5 88t212.5 -88t88.5 -213t-88.5 -213t-212.5 -88t-212.5 88t-88.5 213z" />
<glyph unicode="&#x2026;" horiz-adv-x="1732" d="M141 0v311h316v-311h-316zM709 0v311h313v-311h-313zM1274 0v311h315v-311h-315z" />
<glyph unicode="&#x202f;" horiz-adv-x="370" />
<glyph unicode="&#x2039;" horiz-adv-x="827" d="M106 508v168l306 315h309l-350 -373v-53l350 -375h-309z" />
<glyph unicode="&#x203a;" horiz-adv-x="827" d="M106 190l351 375v53l-351 373h310l305 -315v-168l-305 -318h-310z" />
<glyph unicode="&#x205f;" horiz-adv-x="462" />
<glyph unicode="&#x20ac;" horiz-adv-x="1437" d="M47 512l47 141h123q-6 44 -2 125h-168l47 142h137q43 258 192.5 400t383.5 142q214 0 351.5 -120t170.5 -324h-293q-35 182 -229 182q-116 0 -187 -71.5t-96 -208.5h430l-49 -142h-397q-5 -87 0 -125h354l-47 -141h-291q46 -276 285 -276q104 0 166 56.5t76 162.5h288 q-30 -222 -170 -352t-362 -130q-233 0 -382.5 140.5t-193.5 398.5h-184z" />
<glyph unicode="&#x2122;" horiz-adv-x="1761" d="M45 1305v157h662v-157h-244v-619h-176v619h-242zM838 686v776h266l123 -307h30l117 307h268v-776h-163v567h-33l-123 -309h-166l-123 309h-30v-567h-166z" />
<glyph unicode="&#x25fc;" horiz-adv-x="1054" d="M0 0v1055h1055v-1055h-1055z" />
</font>
</defs>
</svg>
